<svg width="64" height="64" viewBox="0 0 64 64" fill="none" xmlns="http://www.w3.org/2000/svg">
<g id="log-out-sharp">
<g id="Vector" filter="url(#filter0_d_154_342)">
<path d="M20 30H40V12C40 11.4696 39.7893 10.9609 39.4142 10.5858C39.0391 10.2107 38.5304 10 38 10H8C7.46957 10 6.96086 10.2107 6.58579 10.5858C6.21071 10.9609 6 11.4696 6 12V52C6 52.5304 6.21071 53.0391 6.58579 53.4142C6.96086 53.7893 7.46957 54 8 54H38C38.5304 54 39.0391 53.7893 39.4142 53.4142C39.7893 53.0391 40 52.5304 40 52V34H20V30ZM57.4137 30.5862L46 19.1712L43.1712 22L51.1712 30H40V34H51.1712L43.1712 42L46 44.8287L57.4137 33.4137C57.7885 33.0387 57.9991 32.5302 57.9991 32C57.9991 31.4698 57.7885 30.9613 57.4137 30.5862Z" fill="black"/>
<path d="M20 29.5H19.5V30V34V34.5H20H39.5V52C39.5 52.3978 39.342 52.7794 39.0607 53.0607C38.7794 53.342 38.3978 53.5 38 53.5H8C7.60217 53.5 7.22064 53.342 6.93934 53.0607C6.65804 52.7794 6.5 52.3978 6.5 52V12C6.5 11.6022 6.65804 11.2206 6.93934 10.9393C7.22064 10.658 7.60218 10.5 8 10.5H38C38.3978 10.5 38.7794 10.658 39.0607 10.9393L39.4128 10.5872L39.0607 10.9393C39.342 11.2206 39.5 11.6022 39.5 12V29.5H20ZM51.5248 29.6464L43.8784 22L46 19.8784L57.0601 30.9397C57.0601 30.9397 57.0601 30.9398 57.0602 30.9398C57.3412 31.2211 57.4991 31.6024 57.4991 32C57.4991 32.3976 57.3412 32.7789 57.0602 33.0602C57.0601 33.0602 57.0601 33.0603 57.0601 33.0603L46 44.1216L43.8784 42L51.5248 34.3536L52.3784 33.5H51.1712H40.5V30.5H51.1712H52.3784L51.5248 29.6464Z" stroke="white"/>
</g>
</g>
<defs>
<filter id="filter0_d_154_342" x="2" y="10" width="59.999" height="52" filterUnits="userSpaceOnUse" color-interpolation-filters="sRGB">
<feFlood flood-opacity="0" result="BackgroundImageFix"/>
<feColorMatrix in="SourceAlpha" type="matrix" values="0 0 0 0 0 0 0 0 0 0 0 0 0 0 0 0 0 0 127 0" result="hardAlpha"/>
<feOffset dy="4"/>
<feGaussianBlur stdDeviation="2"/>
<feComposite in2="hardAlpha" operator="out"/>
<feColorMatrix type="matrix" values="0 0 0 0 0 0 0 0 0 0 0 0 0 0 0 0 0 0 0.25 0"/>
<feBlend mode="normal" in2="BackgroundImageFix" result="effect1_dropShadow_154_342"/>
<feBlend mode="normal" in="SourceGraphic" in2="effect1_dropShadow_154_342" result="shape"/>
</filter>
</defs>
</svg>
